<svg xmlns="http://www.w3.org/2000/svg" xmlns:xlink="http://www.w3.org/1999/xlink" version="1.1" id="Layer_1" x="0px" y="0px" viewBox="0 0 241.532 50" preserveAspectRatio="none" xml:space="preserve" class="style0"><style>.style0{enable-background:	new 0 0 241.532 50;}.style1{fill:	#748A8A;}.style2{fill:	#003333;}</style><g><g><path d="M5.783 19.42c-0.406 0.334-0.609 0.777-0.609 1.327c0 0.55 0.25 0.99 0.74 1.31 c0.496 0.33 1.64 0.71 3.44 1.151c1.797 0.44 3.19 1.11 4.18 1.991c0.993 0.89 1.49 2.18 1.49 3.87 c0 1.698-0.637 3.075-1.91 4.131c-1.273 1.056-2.948 1.585-5.025 1.585c-2.998 0-5.698-1.111-8.099-3.332l2.519-3.088 c2.04 1.79 3.93 2.68 5.66 2.682c0.776 0 1.386-0.167 1.828-0.501c0.442-0.334 0.664-0.785 0.664-1.354 s-0.235-1.02-0.704-1.355c-0.47-0.334-1.4-0.673-2.79-1.016c-2.203-0.524-3.815-1.206-4.835-2.045 c-1.02-0.84-1.53-2.158-1.53-3.955c0-1.797 0.645-3.183 1.937-4.158c1.291-0.975 2.903-1.463 4.835-1.463 c1.264 0 2.53 0.22 3.79 0.65c1.264 0.43 2.37 1.05 3.31 1.842l-2.14 3.088c-1.643-1.246-3.341-1.869-5.093-1.869 C6.745 18.92 6.19 19.09 5.78 19.42z" class="style1"/><path d="M38.627 31.962c-1.914 1.869-4.271 2.804-7.07 2.804c-2.799 0-5.156-0.935-7.07-2.804 c-1.915-1.869-2.871-4.194-2.871-6.975c0-2.781 0.957-5.106 2.871-6.975c1.914-1.869 4.271-2.804 7.07-2.804 c2.799 0 5.16 0.94 7.07 2.804c1.914 1.87 2.87 4.2 2.87 6.975C41.498 27.77 40.54 30.09 38.63 31.962z M37.191 25 c0-1.688-0.542-3.129-1.625-4.321c-1.083-1.192-2.415-1.788-3.995-1.788c-1.581 0-2.912 0.596-3.996 1.788S25.95 23.31 25.95 25 c0 1.69 0.54 3.12 1.62 4.307c1.084 1.18 2.42 1.77 4 1.774c1.58 0 2.912-0.591 3.995-1.774 C36.649 28.12 37.19 26.69 37.19 25z" class="style1"/><path d="M57.832 30.838c2.076 0 3.774-0.822 5.092-2.465l2.709 2.79c-2.149 2.42-4.682 3.63-7.598 3.63 c-2.916 0-5.319-0.921-7.206-2.763c-1.887-1.842-2.831-4.167-2.831-6.975c0-2.808 0.962-5.151 2.885-7.029 c1.923-1.878 4.276-2.817 7.057-2.817c3.106 0 5.71 1.18 7.8 3.549l-2.628 2.98c-1.337-1.661-2.998-2.492-4.984-2.492 c-1.589 0-2.948 0.519-4.077 1.557C52.924 21.84 52.36 23.24 52.36 25c0 1.76 0.53 3.17 1.6 4.24 C55.024 30.3 56.31 30.84 57.83 30.838z" class="style1"/><path d="M73.028 15.641h4.226v18.935h-4.226V15.641z" class="style1"/><path d="M99.466 34.576l-1.761-4.09h-7.937l-1.761 4.09h-4.497l8.181-18.935h4.09l8.18 18.935H99.466z M93.75 21.275l-2.384 5.499h4.74L93.75 21.275z" class="style1"/><path d="M110.22 34.576V15.641h4.226V30.81h8.072v3.765H110.22z" class="style1"/><path d="M142.711 17.334c1.327 1.13 1.99 2.86 1.99 5.201c0 2.339-0.682 4.05-2.045 5.13 c-1.364 1.084-3.445 1.625-6.244 1.625h-2.519v5.282h-4.226V15.641h6.691C139.267 15.64 141.38 16.21 142.71 17.334z M139.61 24.783c0.505-0.569 0.758-1.399 0.758-2.492c0-1.092-0.33-1.869-0.989-2.329c-0.66-0.461-1.684-0.691-3.075-0.691h-2.411 v6.366h2.844C138.147 25.64 139.1 25.35 139.61 24.783z" class="style2"/><path d="M167.43 21.925c0 3.034-1.202 4.994-3.603 5.878l4.794 6.772h-5.201l-4.198-6.041h-2.926v6.041 h-4.226V15.641h7.178c2.943 0 5.04 0.5 6.3 1.49C166.802 18.12 167.43 19.72 167.43 21.925z M162.337 24.17 c0.524-0.469 0.786-1.214 0.786-2.235c0-1.02-0.271-1.72-0.812-2.099c-0.542-0.379-1.49-0.569-2.845-0.569h-3.169v5.607h3.088 C160.829 24.88 161.81 24.64 162.34 24.174z" class="style2"/><path d="M191.565 31.962c-1.914 1.869-4.271 2.804-7.07 2.804c-2.799 0-5.156-0.935-7.07-2.804 c-1.915-1.869-2.871-4.194-2.871-6.975c0-2.781 0.957-5.106 2.871-6.975c1.914-1.869 4.271-2.804 7.07-2.804 c2.799 0 5.16 0.94 7.07 2.804c1.914 1.87 2.87 4.2 2.87 6.975C194.436 27.77 193.48 30.09 191.56 31.962z M190.129 25 c0-1.688-0.542-3.129-1.625-4.321c-1.083-1.192-2.415-1.788-3.995-1.788c-1.581 0-2.912 0.596-3.996 1.79 s-1.625 2.632-1.625 4.321c0 1.69 0.54 3.12 1.62 4.307c1.084 1.18 2.42 1.77 4 1.774c1.58 0 2.912-0.591 3.995-1.774 C189.587 28.12 190.13 26.69 190.13 25z" class="style2"/><path d="M218.003 31.962c-1.914 1.869-4.271 2.804-7.07 2.804c-2.799 0-5.156-0.935-7.07-2.804 c-1.915-1.869-2.871-4.194-2.871-6.975c0-2.781 0.957-5.106 2.871-6.975c1.914-1.869 4.271-2.804 7.07-2.804 c2.799 0 5.16 0.94 7.07 2.804c1.914 1.87 2.87 4.2 2.87 6.975C220.874 27.77 219.92 30.09 218 31.962z M216.567 25 c0-1.688-0.542-3.129-1.625-4.321c-1.083-1.192-2.415-1.788-3.995-1.788c-1.581 0-2.912 0.596-3.996 1.79 c-1.084 1.192-1.625 2.632-1.625 4.321c0 1.69 0.54 3.12 1.62 4.307c1.084 1.18 2.42 1.77 4 1.77 c1.58 0 2.912-0.591 3.995-1.774C216.025 28.12 216.57 26.69 216.57 25z" class="style2"/><path d="M241.515 15.641v3.711h-8.776v4.09h8.343v3.711h-8.343v7.422h-4.226V15.641H241.515z" class="style2"/></g></g></svg>